<svg width="21" height="14" viewBox="0 0 21 14" fill="none" xmlns="http://www.w3.org/2000/svg">
<path d="M18.7756 5.50778V5.48665V2.29534C18.7756 0.858196 17.751 0.329834 16.7904 0.329834H4.62334C3.66278 0.329834 2.63819 0.837062 2.63819 2.29534V5.48665V5.50778C1.67763 5.61346 0.759766 6.24749 0.759766 7.70577V10.1996C0.759766 10.6223 1.1013 10.9605 1.52821 10.9605H1.78436V12.926C1.78436 13.3487 2.12589 13.6868 2.55281 13.6868H3.27856C3.70548 13.6868 4.04701 13.3487 4.04701 12.926V10.9393H17.4308V12.926C17.4308 13.3487 17.7723 13.6868 18.1992 13.6868H18.925C19.3519 13.6868 19.6934 13.3487 19.6934 12.926V10.9393H19.9496C20.3765 10.9393 20.718 10.6012 20.718 10.1785V7.70577C20.654 6.24749 19.7361 5.61346 18.7756 5.50778ZM3.36394 2.29534H3.40664C3.40664 1.30202 4.06835 1.09068 4.62334 1.09068H16.7904C17.3454 1.09068 18.0071 1.30202 18.0071 2.29534V5.48665H17.4308V3.66908C17.4308 3.24639 17.0892 2.90824 16.6623 2.90824H11.9663C11.5394 2.90824 11.1978 3.24639 11.1978 3.66908V5.48665H10.3013V3.66908C10.3013 3.24639 9.95977 2.90824 9.53286 2.90824H4.8368C4.40988 2.90824 4.06835 3.24639 4.06835 3.66908V5.48665H3.36394V2.29534ZM16.6623 3.66908V5.48665H11.9663V3.66908H16.6623ZM9.57555 3.66908V5.48665H4.87949V3.66908H9.57555ZM3.25722 12.926H2.53146V10.9393H3.25722V12.926ZM18.8823 12.926H18.1565V10.9393H18.8823V12.926ZM19.8855 10.1996H18.8823H18.1565H3.25722H2.53146H1.50687V9.07951H19.8855V10.1996ZM19.8855 8.31867H1.50687V7.70577C1.50687 6.4377 2.44608 6.24749 2.97972 6.24749H3.38529H4.85814H9.5542H11.9663H16.6623H18.0071H18.4127C18.9677 6.24749 19.8855 6.4377 19.8855 7.70577V8.31867Z" fill="#032336" fill-opacity="0.55"/>
</svg>
